<?xml version="1.0" encoding="utf-8"?>
<!-- Generator: Adobe Illustrator 25.0.0, SVG Export Plug-In . SVG Version: 6.00 Build 0)  -->
<svg version="1.1" id="Calque_1" xmlns="http://www.w3.org/2000/svg" xmlns:xlink="http://www.w3.org/1999/xlink" x="0px" y="0px"
	 viewBox="0 0 957 248.4" style="enable-background:new 0 0 957 248.4;" xml:space="preserve">
<style type="text/css">
	.st0{enable-background:new    ;}
	.st1{fill:#3F3232;}
</style>
<g id="Calque_2_1_">
	<g id="Calque_1-2">
		<g class="st0">
			<path class="st1" d="M116.6,81.6v126.7c0,3.4-2.9,5-8.8,5c-5.8,0-8.8-1.7-8.8-5V149H32.8v59.3c0,3.4-2.9,5-8.8,5
				c-5.8,0-8.8-1.7-8.8-5V81.6c0-8.2,2.4-14.9,7.2-20.2c4.8-5.3,10.9-9,18.4-11.2c7.4-2.1,16.2-3.2,26.3-3.2
				C100.2,47.1,116.6,58.6,116.6,81.6z M32.8,79.4v54.3h66.3V79.4c0-11.4-11.1-17.1-33.2-17.1S32.8,68.1,32.8,79.4z"/>
			<path class="st1" d="M223,121v-10.9c0-11.4-6.8-17.1-20.4-17.1s-20.4,5.7-20.4,17.1v100.5c0,3.4-2.9,5-8.8,5
				c-5.8,0-8.8-1.7-8.8-5v-98.3c0-12.1,3.5-20.9,10.4-26.4c6.9-5.5,16.1-8.2,27.5-8.2c25.2,0,37.9,11.4,37.9,34.1v9.2
				c0,3.4-2.9,5-8.8,5C225.9,126.1,223,124.4,223,121z"/>
			<path class="st1" d="M284.3,110.1v73.1c0,11.4,9.3,17.1,28,17.1c18.7,0,28-5.7,28-17.1V174c0-3.4,2.9-5,8.8-5
				c5.8,0,8.8,1.7,8.8,5v7c0,12.1-4.1,20.9-12.4,26.4c-8.2,5.5-19.3,8.2-33,8.2s-24.8-2.7-33.2-8.2c-8.3-5.5-12.5-14.3-12.5-26.4
				v-68.7c0-12.1,4.2-20.9,12.5-26.4c8.3-5.5,19.4-8.2,33.2-8.2s24.8,2.7,33,8.2c8.2,5.5,12.4,14.3,12.4,26.4v7c0,3.4-2.9,5-8.8,5
				c-5.8,0-8.8-1.7-8.8-5v-9.2c0-11.4-9.3-17.1-28-17.1C293.6,93,284.3,98.7,284.3,110.1z"/>
			<path class="st1" d="M496.4,112.3v96.1c0,3.4-2.9,5-8.8,5c-5.8,0-8.8-1.7-8.8-5v-98.3c0-11.4-10-17.1-29.9-17.1
				s-29.9,5.7-29.9,17.1v98.3c0,3.4-2.9,5-8.8,5c-5.8,0-8.8-1.7-8.8-5V42.2c0-3.4,2.9-5,8.8-5c5.8,0,8.8,1.7,8.8,5v44.4
				c8-6,18.6-9,31.6-9c13.1,0,23.9,2.7,32.6,8.2C492,91.4,496.4,100.2,496.4,112.3z"/>
			<path class="st1" d="M562.7,38.3v19c0,3.6-3.2,5.5-9.5,5.5s-9.5-1.8-9.5-5.5v-19c0-3.6,3.2-5.5,9.5-5.5S562.7,34.7,562.7,38.3z
				 M562,84.9v101.8c0,4.7,1.1,9,3.3,13c2.2,4,3.3,6.1,3.3,6.2c0,1.8-1.4,3.6-4.2,5.6c-2.8,2-5.1,3-7,3c-3.1,0-6-2.7-8.8-8
				c-2.8-5.3-4.2-11.2-4.2-17.6v-104c0-3.4,2.9-5,8.8-5C559.1,79.9,562,81.6,562,84.9z"/>
			<path class="st1" d="M683.5,118.8v-8.5c0-11.5-9.4-17.3-28.2-17.3c-8,0-14.6,1.3-19.7,3.9c-5.1,2.6-7.7,6.8-7.7,12.5v4.8
				c0,7.9,1,13,3.1,15.4c2,2.4,6.4,4.4,13.1,6l19,4.8c18.1,4.7,28.8,9.2,32.2,13.6c4.1,5.4,6.1,12.5,6.1,21.4v7.9
				c0,11.4-4.4,19.6-13.2,24.6c-8.8,5-20.2,7.6-34.3,7.6c-22.8,0-37.2-5.8-43.3-17.3c-2.5-4.8-3.7-10.6-3.7-17.5v-7
				c0-1.9,0.7-3.2,2-3.8c1.3-0.7,3.6-1,6.8-1c5.7,0,8.5,1.8,8.5,5.5v9.8c0,5.8,2.6,10,7.7,12.4c5.1,2.4,12.5,3.6,22.3,3.6
				c20,0,30-5.1,30-15.3v-11.6c0-4.5-1.7-8-5.1-10.5c-3.4-2.5-9.3-4.8-17.6-7l-19.3-4.8c-13-3.2-21.5-7-25.5-11.5
				c-4-4.4-6-13.1-6-25.9V111c0.3-11.7,4.4-20.1,12.5-25.4c8-5.3,18.6-7.9,31.7-7.9c30.6,0,46,11.4,46,34.1v7.7
				c0,3.1-2.9,4.6-8.6,4.6C686.3,124.1,683.5,122.3,683.5,118.8z"/>
			<path class="st1" d="M842.1,111.8v6.6c0,12.4-2.6,20.9-7.7,25.6c-5.1,4.7-14.4,7.7-28,9l-42.7,4.2v26c0,11.4,9.5,17.1,28.5,17.1
				c21.6,0,32.4-5,32.4-14.9V177c0-3.4,2.9-5,8.8-5c5.8,0,8.8,1.7,8.8,5v6.1c0,21.6-16.1,32.4-48.1,32.4c-14.2,0-25.6-2.8-34.5-8.3
				c-8.8-5.5-13.2-14.3-13.2-26.3v-68.7c0-12.1,4.7-20.9,14-26.4c9.3-5.5,21.5-8.2,36.5-8.2c15,0,26.3,2.6,33.9,7.9
				C838.3,90.8,842.1,99.6,842.1,111.8z M763.8,110.1v31.7l41.1-4.2c8.3-0.9,13.7-2.6,16.1-5.3c2.4-2.6,3.6-7.3,3.6-14v-8.3
				c0-11.4-10.1-17.1-30.4-17.1C773.9,93,763.8,98.7,763.8,110.1z"/>
			<path class="st1" d="M914.3,55.4V81h23c2.9,0,4.4,2.6,4.4,7.7c0,5.1-1.5,7.7-4.4,7.7h-23v90.4c0,4.7,1.1,9,3.3,13
				c2.2,4,3.3,6.1,3.3,6.2c0,1.8-1.4,3.6-4.2,5.6c-2.8,2-5.1,3-7,3c-3.1,0-6-2.7-8.8-8c-2.8-5.3-4.2-11.2-4.2-17.6V96.3h-17.5
				c-2.9,0-4.4-2.6-4.4-7.7c0-5.1,1.5-7.7,4.4-7.7h17.5V55.4c0-3.4,2.9-5,8.8-5C911.4,50.3,914.3,52,914.3,55.4z"/>
		</g>
	</g>
</g>
</svg>
